<svg xmlns="http://www.w3.org/2000/svg" viewBox="0 0 786.5 383.3"><path d="M757.9,494.3a37.76,37.76,0,0,1,16.2-31.1,137.94,137.94,0,0,1,11.4,22c4.5,11,7.6,28.7,7.6,46.9A38,38,0,0,1,757.9,494.3Z" transform="translate(-6.6 -283)" fill="#fbb814"/><path d="M757.9,494.1A37.76,37.76,0,0,1,774.1,463c-21.8-33.7-58.1-50.3-129.4-56.1-37.3-3-46.8-7.2-63-23.4s-28.4-28.5-48-48C503.6,305.4,474.5,283,414.2,283h-127c-90.5,0-105.4,21.8-165,83.9-34.5,36-48.8,51.5-73.6,81.1-23.3,27.9-41.8,45.3-42,84.4,0,17.8,4.4,35.6,17.6,48.5a68.73,68.73,0,0,0,26.9,15.8c8.8,3.1,15.9.1,16.8-9.5a93.14,93.14,0,0,1,1.8-13,88.45,88.45,0,0,1,173.1,2.1c1.1,5.5,2.1,16.6,2.1,16.6.8,12.8,6.4,15.1,16.2,15.1H569.8c11.8,0,16.6-3.9,16.6-14.6a88.41,88.41,0,0,1,175-17.8l1.2,5.8c.3,7.6,8.4,12.1,16,4.8a39.33,39.33,0,0,0,9.1-15.3c3.8-11.7,5.4-25.5,5.4-39A37.9,37.9,0,0,1,757.9,494.1ZM318.5,405.8a17.84,17.84,0,0,1-17.8,17.8l-114.2-.2c-9.8,0-16.1-7.8-13.9-17.4,0,0,8.6-49,55-70.8,38.3-18,73.3-12.4,73.3-12.4,9.7,1.5,17.6,10.8,17.6,20.6Zm203.8,17.7H372.5a17.93,17.93,0,0,1-17.9-17.8l-.1-65.9A17.86,17.86,0,0,1,372.4,322l65,.1a70.53,70.53,0,0,1,51.1,21.2s32.9,35.7,44.6,49.1S541.3,423.5,522.3,423.5Z" transform="translate(-6.6 -283)" fill="#219dd9"/><path d="M156.1,520.9a72.7,72.7,0,1,0,72.7,72.7A72.7,72.7,0,0,0,156.1,520.9Zm0,109.1a36.35,36.35,0,1,1,36.4-36.4A36.38,36.38,0,0,1,156.1,630Z" transform="translate(-6.6 -283)" fill="#b0cb14"/><path d="M674.9,520.9a72.7,72.7,0,1,0,72.7,72.7A72.64,72.64,0,0,0,674.9,520.9Zm0,109.1a36.35,36.35,0,1,1,36.3-36.4A36.4,36.4,0,0,1,674.9,630Z" transform="translate(-6.6 -283)" fill="#b0cb14"/></svg>